# xmcd
#
# Track frame offsets:
#	150
#	15039
#	32945
#	49251
#	67314
#	84796
#	103629
#	123084
#	137712
#	154788
#	175271
#	189670
#	204948
#	220211
#	239276
#	257662
#	275497
#	289027
#	310176
#	325164
#
# Disc length: 4648
#
# Revision: 2
# Processed by: cddbd v1.5.1PL0 Copyright (c) Steve Scherf et al.
# Submitted via: EasyCDDAExtractor 5.0.6
# Normalized: r1:DSETVAR1
#
DISCID=18122614
DTITLE=Various Artist - Obsession Hits - 2002
DYEAR=2002
DGENRE=
TTITLE0=Real Sugar
TTITLE1=The Look
TTITLE2=Crush in You
TTITLE3=Roxette - Yoyride
TTITLE4=Jefferson
TTITLE5=June Afternoon
TTITLE6=It must have been love
TTITLE7=Try
TTITLE8=Dabgerous
TTITLE9=Anyone
TTITLE10=How do you do
TTITLE11=Make my head go Pop
TTITLE12=The center of the heart
TTITLE13=Shadow of a doubt
TTITLE14=She doesn't live here anymore
TTITLE15=Stars
TTITLE16=Starrring at the ground
TTITLE17=Wish I would fly
TTITLE18=Looking for Jane
TTITLE19=Listen to yur heart
EXTD=
EXTT0=
EXTT1=
EXTT2=
EXTT3=
EXTT4=
EXTT5=
EXTT6=
EXTT7=
EXTT8=
EXTT9=
EXTT10=
EXTT11=
EXTT12=
EXTT13=
EXTT14=
EXTT15=
EXTT16=
EXTT17=
EXTT18=
EXTT19=
PLAYORDER=
